<svg id="Layer_1" data-name="Layer 1" xmlns="http://www.w3.org/2000/svg" viewBox="0 0 30 35.33"><defs><style>.cls-1{fill:#010101;}</style></defs><title>android-30</title><path class="cls-1" d="M8.14,12.08V26.46h0a2.51,2.51,0,0,0,2.57,2.18H25.18a2.51,2.51,0,0,0,2.57-2.18h0V12.08Z" transform="translate(-3 -0.33)"/><path class="cls-1" d="M7.39,22.61A2.42,2.42,0,0,1,5.2,25.19,2.42,2.42,0,0,1,3,22.61V14.17a2.42,2.42,0,0,1,2.2-2.58,2.42,2.42,0,0,1,2.19,2.58Z" transform="translate(-3 -0.33)"/><path class="cls-1" d="M16.55,33.09a2.42,2.42,0,0,1-2.2,2.58,2.42,2.42,0,0,1-2.2-2.58V24.65a2.42,2.42,0,0,1,2.2-2.58,2.42,2.42,0,0,1,2.2,2.58Z" transform="translate(-3 -0.33)"/><path class="cls-1" d="M23.87,33.09a2.42,2.42,0,0,1-2.2,2.58,2.42,2.42,0,0,1-2.2-2.58V24.65a2.42,2.42,0,0,1,2.2-2.58,2.42,2.42,0,0,1,2.2,2.58Z" transform="translate(-3 -0.33)"/><path class="cls-1" d="M33,22.61a2.42,2.42,0,0,1-2.2,2.58,2.42,2.42,0,0,1-2.19-2.58V14.17a2.42,2.42,0,0,1,2.19-2.58A2.42,2.42,0,0,1,33,14.17Z" transform="translate(-3 -0.33)"/><path class="cls-1" d="M22.8,3.43,24.21.9a.38.38,0,0,0-.07-.53.4.4,0,0,0-.5.21L22.2,3.17A11.56,11.56,0,0,0,18,2.38a11.72,11.72,0,0,0-4.28.8L12.23.58a.4.4,0,0,0-.5-.21.37.37,0,0,0-.07.53l1.41,2.54c-2.94,1.38-4.93,4-4.93,7a6.8,6.8,0,0,0,.06.9H27.7a6.8,6.8,0,0,0,.06-.9C27.76,7.41,25.76,4.81,22.8,3.43ZM13.5,7.84A.86.86,0,1,1,14.36,7,.86.86,0,0,1,13.5,7.84Zm9,0A.86.86,0,1,1,23.31,7,.86.86,0,0,1,22.45,7.84Z" transform="translate(-3 -0.33)"/></svg>