<svg id="Layer_1" data-name="Layer 1" xmlns="http://www.w3.org/2000/svg" viewBox="0 0 119.88 119.88"><defs><style>.cls-1{fill:#3b97d3;}.cls-2{fill:#fff;}</style></defs><title>database</title><circle class="cls-1" cx="59.94" cy="59.94" r="59.94"/><g id="Expanded"><path class="cls-2" d="M64,57.63c-13.5,0-24.08-4.76-24.08-10.84S50.5,36,64,36s24.08,4.76,24.08,10.83S77.5,57.63,64,57.63Zm0-19.26c-10.25,0-21.67,3.46-21.67,8.42S53.75,55.22,64,55.22s21.67-3.46,21.67-8.43S74.25,38.37,64,38.37Z" transform="translate(-4.06 -4.06)"/><path class="cls-2" d="M64,67.26c-13.5,0-24.08-4.76-24.08-10.83V46.79a1.21,1.21,0,0,1,2.41,0v9.64c0,5,11.42,8.42,21.67,8.42s21.67-3.46,21.67-8.42V46.79a1.21,1.21,0,0,1,2.41,0v9.64C88.08,62.5,77.5,67.26,64,67.26Z" transform="translate(-4.06 -4.06)"/><path class="cls-2" d="M64,78.1c-13.5,0-24.08-4.76-24.08-10.84V56.43a1.21,1.21,0,1,1,2.41,0V67.26c0,5,11.42,8.43,21.67,8.43s21.67-3.46,21.67-8.43V56.43a1.21,1.21,0,1,1,2.41,0V67.26C88.08,73.34,77.5,78.1,64,78.1Z" transform="translate(-4.06 -4.06)"/><path class="cls-2" d="M64,88.93c-13.5,0-24.08-4.76-24.08-10.83V67.26a1.21,1.21,0,0,1,2.41,0V78.1c0,5,11.42,8.42,21.67,8.42s21.67-3.46,21.67-8.42V67.26a1.21,1.21,0,0,1,2.41,0V78.1C88.08,84.17,77.5,88.93,64,88.93Z" transform="translate(-4.06 -4.06)"/></g></svg>