<svg id="Layer_1" data-name="Layer 1" xmlns="http://www.w3.org/2000/svg" viewBox="0 0 125.34 125.34"><defs><style>.cls-1{fill:#3b97d3;}.cls-2{fill:#fff;}</style></defs><title>notification</title><circle class="cls-1" cx="62.67" cy="62.67" r="62.67"/><g id="Icons"><path class="cls-2" d="M97.6,65.91a6.27,6.27,0,0,0-1.19-1.86,5.7,5.7,0,0,0-2.12-1.35,16,16,0,0,1-6.21-7.55l0,0-3.4-8.83A21.72,21.72,0,0,0,73.05,34.14a21.19,21.19,0,0,0-10.86-1.76l-.06-.15a6,6,0,0,0-11.21,4.31l0,.13A21.85,21.85,0,0,0,43.73,62l3.41,8.92h0a16.4,16.4,0,0,1,.45,9.64,5.45,5.45,0,0,0-.44,4.78v0a3.83,3.83,0,0,0,5,2L95.4,70.81a3.81,3.81,0,0,0,2.2-4.9ZM49.66,59.36h-.17a.91.91,0,0,1-.89-.73,18.38,18.38,0,0,1-.33-3.14.91.91,0,0,1,.89-.92h0a.9.9,0,0,1,.9.89,16.89,16.89,0,0,0,.3,2.83A.91.91,0,0,1,49.66,59.36Zm7.44-17.7a17,17,0,0,0-3.23,3A16.69,16.69,0,0,0,50.62,51a.92.92,0,0,1-.88.67l-.23,0a.9.9,0,0,1-.64-1.1,18.45,18.45,0,0,1,7.18-10.38.91.91,0,0,1,1.05,1.48Z" transform="translate(-1.33 -1.33)"/><path class="cls-2" d="M72.84,81.38,71.16,82,60.35,86.18l-1.69.65a7.13,7.13,0,0,0,3.46,3.22,7.27,7.27,0,0,0,2.95.62,7.35,7.35,0,0,0,2.64-.49l.66-.25a7.3,7.3,0,0,0,4.06-3.85A7.13,7.13,0,0,0,72.84,81.38Z" transform="translate(-1.33 -1.33)"/></g></svg>