<svg id="Layer_1" data-name="Layer 1" xmlns="http://www.w3.org/2000/svg" viewBox="0 0 144.18 160.47"><defs><style>.cls-1{fill:#3b97d3;}.cls-2{fill:#fff;}.cls-3{fill:#b3e0ff;}.cls-4{fill:#e74c3c;}</style></defs><title>notificationnew</title><circle class="cls-1" cx="77.36" cy="82" r="62.67"/><g id="Icons"><path class="cls-2" d="M123.6,91.91a6.16,6.16,0,0,0-1.19-1.86,5.78,5.78,0,0,0-2.12-1.35,16,16,0,0,1-6.21-7.55h0l-3.4-8.83A21.7,21.7,0,0,0,99.05,60.14a21.21,21.21,0,0,0-10.86-1.76l-.06-.15a6,6,0,1,0-11.21,4.31v.13A21.85,21.85,0,0,0,69.73,88l3.41,8.92h0a16.43,16.43,0,0,1,.45,9.64,5.45,5.45,0,0,0-.44,4.78h0a3.83,3.83,0,0,0,5,2L121.4,96.81A3.81,3.81,0,0,0,123.6,91.91ZM75.66,85.36h-.17a.92.92,0,0,1-.89-.73,18.49,18.49,0,0,1-.33-3.14.9.9,0,0,1,.89-.92h0a.91.91,0,0,1,.9.89,16.78,16.78,0,0,0,.3,2.83A.91.91,0,0,1,75.66,85.36Zm7.44-17.7a17,17,0,0,0-3.23,3A16.57,16.57,0,0,0,76.62,77a.92.92,0,0,1-.88.67h-.23a.9.9,0,0,1-.64-1.1,18.45,18.45,0,0,1,7.18-10.38.91.91,0,0,1,1,1.48Z" transform="translate(-12.64 -8)"/><path class="cls-2" d="M98.84,107.38l-1.68.62-10.81,4.18-1.69.65a7.08,7.08,0,0,0,3.46,3.22,7.29,7.29,0,0,0,2.95.62,7.44,7.44,0,0,0,2.64-.49l.66-.25a7.3,7.3,0,0,0,4.06-3.85A7.11,7.11,0,0,0,98.84,107.38Z" transform="translate(-12.64 -8)"/></g><circle id="Ellipse_7" data-name="Ellipse 7" class="cls-3" cx="6.93" cy="2.31" r="2.31"/><circle id="Ellipse_8" data-name="Ellipse 8" class="cls-3" cx="4.13" cy="16.34" r="4.13"/><circle id="Ellipse_9" data-name="Ellipse 9" class="cls-4" cx="22.45" cy="20.14" r="6.93"/><circle id="Ellipse_7-2" data-name="Ellipse 7" class="cls-3" cx="126.5" cy="158.16" r="2.31"/><circle id="Ellipse_8-2" data-name="Ellipse 8" class="cls-3" cx="140.06" cy="153.57" r="4.13"/><circle id="Ellipse_9-2" data-name="Ellipse 9" class="cls-4" cx="134.18" cy="135.81" r="6.93"/></svg>