<?xml version="1.0" encoding="utf-8"?>
<!-- Generator: Adobe Illustrator 23.0.0, SVG Export Plug-In . SVG Version: 6.00 Build 0)  -->
<svg version="1.1" id="Layer_1" xmlns="http://www.w3.org/2000/svg" xmlns:xlink="http://www.w3.org/1999/xlink" x="0px" y="0px"
	 viewBox="0 0 64 64" style="enable-background:new 0 0 64 64;" xml:space="preserve">
<style type="text/css">
	.st0{fill:#FAC61D;}
	.st1{fill:#F37934;}
	.st2{fill:#F2F2F3;}
	.st3{fill:#D2D6D9;}
	.st4{fill:#27324E;}
	.st5{fill:none;stroke:#90336A;stroke-width:10;stroke-linecap:round;stroke-linejoin:round;stroke-miterlimit:10;}
	.st6{fill:#B5BAC1;}
</style>
<g id="XMLID_2822_">
	<path class="st0" d="M32.6,38.04c-0.22-0.63,0.1-2.82-1.59-3.75c-1.69-0.94-6.76-2.7-6.76-2.7c-0.16,0.31-0.35,0.67-0.54,1.08
		l-9.33-10.04l-2.82,10.73l-4.38-0.4l3.71-14.08l-0.18-0.2l-3.9-1.08v4.13v2.86v1.74v2.31v8.51l18.83,4.5l-2.48,2.48l-1.55,1.55
		l-2.36,2.36h6.55l5.95-5.95c0.22,0.12,0.36,0.2,0.36,0.2c0.03-1.73,0.48-3.85,0.48-3.85l-0.06-0.03
		C32.61,38.26,32.63,38.14,32.6,38.04z"/>
</g>
<g id="XMLID_2821_">
	<polygon class="st0" points="59.85,17.73 59.79,17.59 53.85,18.89 40.79,28.29 36.97,36.19 32.12,37.91 32.12,36.54 31.01,37.68 
		35.04,41.71 41.35,48.02 47.9,48.02 41.52,41.64 60.35,37.14 60.35,33.76 60.35,30.81 60.35,17.59 	"/>
</g>
<g id="XMLID_1984_">
	<g id="XMLID_1986_">
		<polygon class="st1" points="6.81,24.93 6.81,26.33 6.81,28.63 6.81,31.13 7.64,31.2 10.89,18.87 10.71,18.67 8.61,18.09 		"/>
	</g>
	<g id="XMLID_1999_">
		<path class="st1" d="M21.75,30.7c0.02-0.03,0.03-0.07,0.05-0.1l-7.41-7.98l-0.03,0.12L21.75,30.7z"/>
	</g>
	<g id="XMLID_2000_">
		<polygon class="st1" points="23.68,39.67 6.81,35.64 6.81,37.14 22.47,40.88 		"/>
	</g>
</g>
<g id="XMLID_1996_">
	<g id="XMLID_1997_">
		<polygon class="st1" points="39.39,46.05 41.35,48.02 47.9,48.02 45.94,46.05 		"/>
	</g>
	<g id="XMLID_1998_">
		<polygon class="st1" points="59.85,17.73 59.79,17.59 58.39,17.9 58.39,28.85 58.39,31.8 58.39,35.17 39.55,39.67 41.52,41.64 
			60.35,37.14 60.35,33.76 60.35,30.81 60.35,17.59 		"/>
	</g>
</g>
<g id="XMLID_1052_">
	<path class="st1" d="M32.6,38.04c-0.2-0.58,0.06-2.52-1.26-3.54v-0.99h-1.55v6.6l-5.95,5.95h-2.62l-1.97,1.97h6.55l5.95-5.95
		c0.22,0.12,0.36,0.2,0.36,0.2c0.03-1.73,0.48-3.85,0.48-3.85l-0.06-0.03C32.61,38.26,32.63,38.14,32.6,38.04z"/>
</g>
<g id="XMLID_2820_">
	<path class="st2" d="M15.08,16.56c-0.21,0.01-0.41,0.02-0.62,0.03h0l-4.43,16.79l3.13-0.01c0.27,0,0.53,0,0.8,0.01l2.17-0.01
		c4.85-0.02,8.22,1.6,12.65,3.47l3.29,1.39l0.02-16.8l-3.45-1.6C24.41,17.86,19.78,16.76,15.08,16.56z"/>
</g>
<g id="XMLID_2819_">
	<path class="st2" d="M52.72,16.59L52.72,16.59c-0.21-0.01-0.41-0.02-0.62-0.03c-4.7,0.19-9.33,1.3-13.57,3.27l-3.45,1.6l0.02,15.55
		l1.87-0.79c0,0,1.07-0.44,1.84-0.72s0.84-0.31,1.63-0.54l1.9-0.52c2.84-0.7,5.77-1.05,8.72-1.04l2.16,0.01
		c0.27-0.01,0.54-0.01,0.81-0.01l3.13,0.01L52.72,16.59z"/>
</g>
<g id="XMLID_1053_">
	<path class="st3" d="M30.06,20.48L30.04,36.2l-3.29-1.39c-4.43-1.87-7.8-3.48-12.65-3.47l-2.17,0.01c-0.27,0-0.53-0.01-0.8-0.01
		l-0.55,0l-0.54,2.05l3.13-0.01c0.27,0,0.53,0,0.8,0.01l2.17-0.01c4.85-0.02,8.22,1.6,12.65,3.47l3.29,1.39l0.02-16.8L30.06,20.48z"
		/>
</g>
<g id="XMLID_1071_">
	<path class="st3" d="M52.72,16.59L52.72,16.59c-0.21-0.01-0.41-0.02-0.62-0.03c-0.29,0.01-0.59,0.03-0.88,0.05l3.89,14.74
		l-3.13-0.01c-0.27,0-0.54,0-0.81,0.01l-2.16-0.01c-2.95-0.01-5.88,0.34-8.72,1.04l-1.9,0.52c-0.78,0.23-0.86,0.25-1.63,0.54
		c-0.58,0.21-1.34,0.52-1.67,0.65l0,2.89l1.87-0.79c0,0,1.07-0.44,1.84-0.72s0.84-0.31,1.63-0.54l1.9-0.52
		c2.84-0.7,5.77-1.05,8.72-1.04l2.16,0.01c0.27-0.01,0.54-0.01,0.81-0.01l3.13,0.01L52.72,16.59z"/>
</g>
<g id="XMLID_2343_">
	<path id="XMLID_3686_" class="st4" d="M21.83,38.63H7.06c-0.4,0-0.72-0.32-0.72-0.72s0.32-0.72,0.72-0.72h14.77
		c0.4,0,0.72,0.32,0.72,0.72S22.23,38.63,21.83,38.63z"/>
</g>
<g id="XMLID_2342_">
	<path id="XMLID_3685_" class="st4" d="M44.87,45.86h-4.86c-0.4,0-0.72-0.32-0.72-0.72s0.32-0.72,0.72-0.72h4.86
		c0.4,0,0.72,0.32,0.72,0.72S45.27,45.86,44.87,45.86z"/>
</g>
<g id="XMLID_2341_">
	<path id="XMLID_3684_" class="st4" d="M25.81,48.74h-9.52c-0.29,0-0.55-0.18-0.66-0.44c-0.11-0.27-0.05-0.58,0.16-0.78l5.47-5.47
		l-17.58-4.2c-0.32-0.08-0.55-0.37-0.55-0.7V16.77c0-0.22,0.1-0.44,0.28-0.57c0.18-0.14,0.41-0.18,0.63-0.12l6.87,1.9
		c0.38,0.11,0.61,0.5,0.5,0.89c-0.11,0.38-0.5,0.61-0.89,0.5l-5.96-1.65v18.85l18.28,4.37c0.25,0.06,0.45,0.25,0.53,0.5
		c0.07,0.25,0,0.52-0.18,0.7l-5.15,5.15h7.49l6.1-6.1c0.28-0.28,0.74-0.28,1.02,0c0.28,0.28,0.28,0.74,0,1.02l-6.31,6.31
		C26.18,48.66,26,48.74,25.81,48.74z"/>
</g>
<g id="XMLID_2340_">
	<path id="XMLID_3681_" class="st4" d="M32.08,38.95c-0.09,0-0.19-0.02-0.28-0.06l-4.83-2.04c-4.33-1.83-8.93-2.76-13.67-2.76
		c-0.04,0-0.08,0-0.12,0l-6.1,0.02c0,0,0,0,0,0c-0.22,0-0.43-0.1-0.57-0.28c-0.14-0.18-0.18-0.41-0.13-0.62l4.43-16.8
		c0.08-0.3,0.34-0.52,0.65-0.53c6.03-0.35,12.08,0.79,17.51,3.3l3.45,1.6c0.25,0.12,0.42,0.37,0.42,0.65l-0.02,16.8
		c0,0.24-0.12,0.47-0.32,0.6C32.36,38.91,32.22,38.95,32.08,38.95z M13.29,32.66c4.94,0,9.72,0.97,14.23,2.87l3.84,1.62l0.02-15.26
		l-3.03-1.4c-5.05-2.34-10.68-3.44-16.3-3.2L8,32.67l5.17-0.02C13.21,32.66,13.25,32.66,13.29,32.66z"/>
</g>
<g id="XMLID_2339_">
	<path id="XMLID_3678_" class="st4" d="M32.14,38.95c-0.14,0-0.28-0.04-0.4-0.12c-0.2-0.13-0.32-0.36-0.32-0.6l-0.02-16.8
		c0-0.28,0.16-0.54,0.42-0.65l3.45-1.6c5.42-2.51,11.48-3.66,17.51-3.3c0.31,0.02,0.57,0.23,0.65,0.53l4.43,16.8
		c0.06,0.22,0.01,0.45-0.13,0.62c-0.14,0.18-0.35,0.28-0.57,0.28l-6.1-0.02c-0.04,0-0.08,0-0.12,0c-2.84,0-5.67,0.34-8.42,1.01
		l-1.89,0.52c-0.76,0.22-0.82,0.24-1.57,0.52c-0.75,0.28-1.81,0.71-1.82,0.71l-4.83,2.04C32.33,38.93,32.23,38.95,32.14,38.95z
		 M32.84,21.89l0.02,15.26l3.84-1.62c0.05-0.02,1.1-0.45,1.87-0.73c0.78-0.29,0.87-0.32,1.67-0.55l1.91-0.52
		c0.01,0,0.01,0,0.02-0.01c2.9-0.71,5.89-1.07,8.89-1.06l5.17,0.02l-4.06-15.39c-5.62-0.24-11.24,0.86-16.3,3.2L32.84,21.89z"/>
</g>
<g id="XMLID_2338_">
	<path class="st5" d="M32.13,24.59"/>
</g>
<g id="XMLID_2337_">
	<path id="XMLID_3677_" class="st4" d="M10.69,48.82H7.91c-0.4,0-0.72-0.32-0.72-0.72s0.32-0.72,0.72-0.72h2.78
		c0.4,0,0.72,0.32,0.72,0.72S11.09,48.82,10.69,48.82z"/>
</g>
<g id="XMLID_2336_">
	<path id="XMLID_3676_" class="st4" d="M27.68,48.83H12.76c-0.4,0-0.72-0.32-0.72-0.72s0.32-0.72,0.72-0.72h14.92
		c0.4,0,0.72,0.32,0.72,0.72S28.08,48.83,27.68,48.83z"/>
</g>
<g id="XMLID_2335_">
	<path id="XMLID_3675_" class="st4" d="M52.02,48.83H36.36c-0.4,0-0.72-0.32-0.72-0.72s0.32-0.72,0.72-0.72h15.66
		c0.4,0,0.72,0.32,0.72,0.72S52.42,48.83,52.02,48.83z"/>
</g>
<g id="XMLID_2125_">
	<path class="st6" d="M50.27,36.98"/>
</g>
<g id="XMLID_2120_">
	<path id="XMLID_3674_" class="st4" d="M47.9,48.74h-9.52c-0.19,0-0.37-0.08-0.51-0.21l-6.31-6.31c-0.13-0.13-0.21-0.32-0.21-0.51
		l-0.01-3.18c0-0.4,0.32-0.72,0.72-0.72c0,0,0,0,0,0c0.4,0,0.72,0.32,0.72,0.72l0.01,2.88l5.89,5.89h7.49l-5.15-5.15
		c-0.18-0.18-0.25-0.45-0.18-0.7c0.07-0.25,0.27-0.44,0.53-0.5l18.28-4.37V17.72l-5.98,1.66c-0.38,0.11-0.78-0.12-0.89-0.5
		c-0.11-0.38,0.12-0.78,0.5-0.89l6.89-1.91c0.22-0.06,0.45-0.02,0.63,0.12c0.18,0.14,0.28,0.35,0.28,0.57v20.37
		c0,0.33-0.23,0.62-0.55,0.7l-17.58,4.2l5.47,5.47c0.21,0.21,0.27,0.52,0.16,0.78C48.46,48.56,48.19,48.74,47.9,48.74z"/>
</g>
</svg>
