<svg id="Layer_1" data-name="Layer 1" xmlns="http://www.w3.org/2000/svg" viewBox="0 0 127.29 127.29"><defs><style>.cls-1{fill:#4eba6f;}.cls-2{fill:none;}.cls-3{fill:#fff;}</style></defs><title>speaker</title><circle class="cls-1" cx="63.65" cy="63.65" r="63.65"/><g id="background"><rect class="cls-2" x="34.15" y="31.28" width="64.74" height="64.74"/></g><g id="speaker_louder"><polygon class="cls-3" points="66.51 39.37 66.51 87.92 54.38 75.78 38.19 75.78 38.19 51.51 54.38 51.51 66.51 39.37"/><path class="cls-3" d="M85.71,41.11,82.78,44a28.29,28.29,0,0,1,0,39.92l2.93,2.93a32.37,32.37,0,0,0,0-45.78Z" transform="translate(-0.35 -0.35)"/><path class="cls-3" d="M80.05,46.9l-2.86,2.86a20.23,20.23,0,0,1,0,28.48l2.86,2.86a24.26,24.26,0,0,0,0-34.2Z" transform="translate(-0.35 -0.35)"/><path class="cls-3" d="M74.33,52.62l-2.86,2.86a12.14,12.14,0,0,1,0,17l2.86,2.86a16.18,16.18,0,0,0,0-22.76Z" transform="translate(-0.35 -0.35)"/></g></svg>