<?xml version="1.0" encoding="utf-8"?>
<!-- Generator: Adobe Illustrator 23.0.0, SVG Export Plug-In . SVG Version: 6.00 Build 0)  -->
<svg version="1.1" id="Layer_1" xmlns="http://www.w3.org/2000/svg" xmlns:xlink="http://www.w3.org/1999/xlink" x="0px" y="0px"
	 viewBox="0 0 180 180" style="enable-background:new 0 0 180 180;" xml:space="preserve">
<style type="text/css">
	.st0{fill:#3B97D3;}
	.st1{fill:#2880BA;}
	.st2{fill:#FFFFFF;}
	.st3{fill:#FFFFFF;stroke:#BDC3C7;stroke-width:3;stroke-miterlimit:10;}
	.st4{fill:#E64C3C;}
	.st5{fill:#C03B2B;}
	.st6{fill:#F29C1F;}
	.st7{fill:#F0C419;}
	.st8{fill:#64BE6E;}
	.st9{fill:#24AE5F;}
	.st10{fill:#3A3A3A;}
</style>
<circle class="st0" cx="92.14" cy="89.48" r="81.56"/>
<path class="st1" d="M92.14,8.07c45.04,0,81.56,36.51,81.56,81.56s-36.51,81.56-81.56,81.56"/>
<path class="st2" d="M93.73,104.48c-7.41,0-14.83,3.05-19.63,8.72c-4.36,5.23-12.21-1.74-7.85-6.98
	c6.98-7.85,17.01-12.21,27.48-12.21s20.5,4.36,27.48,12.21c4.36,5.23-3.49,12.21-7.85,6.98
	C108.56,107.53,101.14,104.48,93.73,104.48z M93.73,141.12c-5.67,0-10.47-4.8-10.47-10.47c0-5.67,4.8-10.47,10.47-10.47
	c5.67,0,10.47,4.8,10.47,10.47C104.19,136.32,99.4,141.12,93.73,141.12z M93.73,78.31c-13.96,0-26.61,4.8-36.64,14.83
	c-4.36,4.36-12.65-2.18-7.41-7.41c11.78-11.78,27.48-17.88,44.05-17.88s32.28,6.11,44.05,17.88c5.23,5.23-3.05,11.78-7.41,7.41
	C120.33,83.11,107.68,78.31,93.73,78.31z M93.73,52.14c-20.06,0-38.82,7.41-53.21,20.94c-5.23,4.8-12.65-2.62-7.41-7.41
	c17.01-15.7,37.95-23.99,60.63-23.99s43.62,8.29,60.63,23.99c5.23,4.8-2.18,12.21-7.41,7.41C132.54,59.56,113.79,52.14,93.73,52.14z
	"/>
<g>
	<circle class="st3" cx="134.69" cy="145.7" r="26.37"/>
	<path class="st4" d="M156.57,145.8c0,0-0.41,6.02-1.66,8.36l-6.06-2.51c0,0,1.44-3.34,1.16-5.85"/>
	<path class="st5" d="M148.85,139.95c0,0,1.46,4.2,1.16,6.85h6.56c0,0-0.3-8.06-1.66-9.36L148.85,139.95z"/>
	<path class="st6" d="M140.58,131.49c0,0,6.8,3.35,8.27,8.46l6.06-2.51c0,0-3.04-8.54-11.81-12.04"/>
	<path class="st7" d="M128.8,131.49c0,0,5.75-2.68,11.77,0l2.52-6.09c0,0-8.2-3.91-16.82,0"/>
	<path class="st8" d="M120.48,139.82c0,0,3.1-6.91,8.32-8.32l-2.52-6.09c0,0-6.96,1.58-11.89,11.89"/>
	<path class="st9" d="M120.47,151.69c0,0-2.4-6.13,0-11.77l-6.09-2.52c0,0-3.74,5.98,0,16.82L120.47,151.69z"/>
	<g>
		<path class="st10" d="M134.72,150.17c-2.41,0-4.37-1.96-4.37-4.37s1.96-4.37,4.37-4.37c2.41,0,4.37,1.96,4.37,4.37
			S137.13,150.17,134.72,150.17z M134.72,143.62c-1.21,0-2.19,0.98-2.19,2.19s0.98,2.19,2.19,2.19c1.21,0,2.19-0.98,2.19-2.19
			S135.92,143.62,134.72,143.62z"/>
	</g>
	<g>
		<path class="st10" d="M137.04,144.58c-0.28,0-0.56-0.11-0.77-0.32c-0.43-0.43-0.43-1.12,0-1.54l10.81-10.81
			c0.43-0.43,1.12-0.43,1.54,0c0.43,0.43,0.43,1.12,0,1.54l-10.81,10.81C137.6,144.47,137.32,144.58,137.04,144.58z"/>
	</g>
	<g>
		<path class="st10" d="M118.21,146.8h-4.39c-0.61,0-1.1-0.49-1.1-1.1s0.49-1.1,1.1-1.1h4.39c0.61,0,1.1,0.49,1.1,1.1
			S118.82,146.8,118.21,146.8z"/>
	</g>
	<g>
		<path class="st10" d="M115.4,154.79c-0.43,0-0.84-0.25-1.02-0.68c-0.23-0.56,0.03-1.2,0.6-1.44l4.06-1.68
			c0.56-0.23,1.2,0.03,1.43,0.59s-0.03,1.2-0.6,1.44l-4.06,1.68C115.69,154.76,115.54,154.79,115.4,154.79z"/>
	</g>
	<g>
		<path class="st10" d="M153.9,154.84c-0.14,0-0.28-0.03-0.42-0.08l-4.04-1.67c-0.56-0.23-0.82-0.87-0.59-1.43
			c0.23-0.56,0.87-0.82,1.43-0.59l4.04,1.67c0.56,0.23,0.82,0.87,0.59,1.43C154.73,154.59,154.32,154.84,153.9,154.84z"/>
	</g>
	<g>
		<path class="st10" d="M155.48,146.9L155.48,146.9l-4.37,0c-0.6,0-1.09-0.49-1.09-1.09c0-0.6,0.49-1.09,1.09-1.09l0,0l4.37,0
			c0.6,0,1.09,0.49,1.09,1.09C156.57,146.41,156.08,146.9,155.48,146.9z"/>
	</g>
	<g>
		<path class="st10" d="M149.86,140.62c-0.43,0-0.84-0.25-1.01-0.67c-0.23-0.56,0.03-1.2,0.59-1.43l4.04-1.67
			c0.56-0.23,1.2,0.03,1.43,0.59c0.23,0.56-0.03,1.2-0.59,1.43l-4.04,1.67C150.14,140.6,150,140.62,149.86,140.62z"/>
	</g>
	<g>
		<path class="st10" d="M141,131.58c-0.14,0-0.28-0.03-0.42-0.08c-0.56-0.23-0.83-0.88-0.59-1.44l1.68-4.06
			c0.23-0.56,0.87-0.83,1.44-0.59c0.56,0.23,0.83,0.88,0.59,1.44l-1.68,4.06C141.83,131.32,141.43,131.58,141,131.58z"/>
	</g>
	<g>
		<path class="st10" d="M134.69,130.32L134.69,130.32c-0.61,0-1.1-0.49-1.1-1.1l0-4.39c0-0.61,0.49-1.1,1.1-1.1l0,0
			c0.61,0,1.1,0.49,1.1,1.1l0,4.39C135.79,129.83,135.3,130.32,134.69,130.32z"/>
	</g>
	<g>
		<path class="st10" d="M128.38,131.58c-0.43,0-0.84-0.25-1.02-0.68l-1.68-4.06c-0.23-0.56,0.03-1.2,0.6-1.44
			c0.56-0.23,1.2,0.03,1.43,0.59l1.68,4.06c0.23,0.56-0.03,1.2-0.6,1.44C128.66,131.55,128.52,131.58,128.38,131.58z"/>
	</g>
	<g>
		<path class="st10" d="M123.04,135.15c-0.28,0-0.56-0.11-0.78-0.32l-3.11-3.11c-0.43-0.43-0.43-1.13,0-1.55
			c0.43-0.43,1.13-0.43,1.55,0l3.11,3.11c0.43,0.43,0.43,1.13,0,1.55C123.6,135.04,123.32,135.15,123.04,135.15z"/>
	</g>
	<g>
		<path class="st10" d="M119.46,140.5c-0.14,0-0.28-0.03-0.42-0.08l-4.06-1.68c-0.56-0.23-0.83-0.88-0.59-1.44s0.87-0.83,1.44-0.59
			l4.06,1.68c0.56,0.23,0.83,0.88,0.59,1.44C120.3,140.24,119.89,140.5,119.46,140.5z"/>
	</g>
	<g>
		<path class="st10" d="M144.55,163.28h-19.67c-0.6,0-1.09-0.49-1.09-1.09v-6.56c0-0.6,0.49-1.09,1.09-1.09h19.67
			c0.6,0,1.09,0.49,1.09,1.09v6.56C145.64,162.79,145.16,163.28,144.55,163.28z M125.98,161.1h17.48v-4.37h-17.48V161.1z"/>
	</g>
</g>
</svg>
